<mxfile host="app.diagrams.net" agent="Mozilla/5.0 (Windows NT 10.0; Win64; x64) AppleWebKit/537.36 (KHTML, like Gecko) Chrome/128.0.0.0 Safari/537.36 OPR/114.0.0.0" version="24.8.8">
  <diagram name="Page-1" id="oWep2oki-RV8Wh9IKWON">
    <mxGraphModel dx="2243" dy="773" grid="1" gridSize="10" guides="1" tooltips="1" connect="1" arrows="1" fold="1" page="1" pageScale="1" pageWidth="850" pageHeight="1100" math="0" shadow="0">
      <root>
        <mxCell id="0" />
        <mxCell id="1" parent="0" />
        <mxCell id="DZr0Z_fmnJ5IC--OXbw6-70" value="Library management" style="verticalAlign=top;align=left;spacingTop=8;spacingLeft=2;spacingRight=12;shape=cube;size=5;direction=south;fontStyle=4;html=1;rounded=0;shadow=0;comic=0;labelBackgroundColor=none;strokeWidth=1;fontFamily=Verdana;fontSize=12" parent="1" vertex="1">
          <mxGeometry x="-729" y="300" width="590" height="420" as="geometry" />
        </mxCell>
        <mxCell id="DZr0Z_fmnJ5IC--OXbw6-61" value="" style="rounded=0;orthogonalLoop=1;jettySize=auto;html=1;endArrow=halfCircle;endFill=0;endSize=12;strokeWidth=1;sketch=0;entryX=0.25;entryY=0.925;entryDx=0;entryDy=0;entryPerimeter=0;exitX=0;exitY=0;exitDx=55;exitDy=70;exitPerimeter=0;" parent="1" source="DZr0Z_fmnJ5IC--OXbw6-71" target="DZr0Z_fmnJ5IC--OXbw6-64" edge="1">
          <mxGeometry relative="1" as="geometry">
            <mxPoint x="-489" y="431.35" as="sourcePoint" />
            <mxPoint x="-380" y="461.35" as="targetPoint" />
            <Array as="points">
              <mxPoint x="-509" y="416" />
            </Array>
          </mxGeometry>
        </mxCell>
        <mxCell id="DZr0Z_fmnJ5IC--OXbw6-62" value="" style="rounded=0;orthogonalLoop=1;jettySize=auto;html=1;endArrow=halfCircle;endFill=0;endSize=12;strokeWidth=1;sketch=0;exitX=1;exitY=0.5;exitDx=0;exitDy=0;" parent="1" source="DZr0Z_fmnJ5IC--OXbw6-65" target="DZr0Z_fmnJ5IC--OXbw6-64" edge="1">
          <mxGeometry relative="1" as="geometry">
            <mxPoint x="-159" y="416.35" as="sourcePoint" />
            <mxPoint x="-309" y="416.35" as="targetPoint" />
          </mxGeometry>
        </mxCell>
        <mxCell id="DZr0Z_fmnJ5IC--OXbw6-63" value="" style="rounded=0;orthogonalLoop=1;jettySize=auto;html=1;endArrow=oval;endFill=0;sketch=0;sourcePerimeterSpacing=0;targetPerimeterSpacing=0;endSize=22;exitX=0;exitY=0;exitDx=0;exitDy=100;exitPerimeter=0;" parent="1" source="DZr0Z_fmnJ5IC--OXbw6-79" target="DZr0Z_fmnJ5IC--OXbw6-64" edge="1">
          <mxGeometry relative="1" as="geometry">
            <mxPoint x="-309" y="456.35" as="sourcePoint" />
            <mxPoint x="-324" y="416.35" as="targetPoint" />
          </mxGeometry>
        </mxCell>
        <mxCell id="DZr0Z_fmnJ5IC--OXbw6-64" value="" style="ellipse;whiteSpace=wrap;html=1;align=center;aspect=fixed;fillColor=none;strokeColor=none;resizable=0;perimeter=centerPerimeter;rotatable=0;allowArrows=0;points=[];outlineConnect=1;" parent="1" vertex="1">
          <mxGeometry x="-314" y="411.35" width="10" height="10" as="geometry" />
        </mxCell>
        <mxCell id="DZr0Z_fmnJ5IC--OXbw6-65" value="" style="html=1;rounded=0;rotation=-180;" parent="1" vertex="1">
          <mxGeometry x="-149" y="406.35" width="20" height="20" as="geometry" />
        </mxCell>
        <mxCell id="DZr0Z_fmnJ5IC--OXbw6-66" value="&lt;font style=&quot;font-size: 12px;&quot;&gt;IAccountingSystem&lt;/font&gt;" style="text;html=1;align=center;verticalAlign=middle;resizable=0;points=[];autosize=1;strokeColor=none;fillColor=none;spacing=2;" parent="1" vertex="1">
          <mxGeometry x="-449" y="411.35" width="130" height="30" as="geometry" />
        </mxCell>
        <mxCell id="DZr0Z_fmnJ5IC--OXbw6-67" value="" style="ellipse;whiteSpace=wrap;html=1;align=center;aspect=fixed;fillColor=none;strokeColor=none;resizable=0;perimeter=centerPerimeter;rotatable=0;allowArrows=0;points=[];outlineConnect=1;" parent="1" vertex="1">
          <mxGeometry x="-89" y="411.35" width="10" height="10" as="geometry" />
        </mxCell>
        <mxCell id="DZr0Z_fmnJ5IC--OXbw6-68" value="" style="rounded=0;orthogonalLoop=1;jettySize=auto;html=1;endArrow=oval;endFill=0;sketch=0;sourcePerimeterSpacing=0;targetPerimeterSpacing=0;endSize=22;exitX=0;exitY=0.5;exitDx=0;exitDy=0;" parent="1" source="DZr0Z_fmnJ5IC--OXbw6-65" target="DZr0Z_fmnJ5IC--OXbw6-67" edge="1">
          <mxGeometry relative="1" as="geometry">
            <mxPoint x="-131.5" y="416.35" as="sourcePoint" />
            <mxPoint x="-84" y="416.35" as="targetPoint" />
          </mxGeometry>
        </mxCell>
        <mxCell id="DZr0Z_fmnJ5IC--OXbw6-69" value="&lt;font style=&quot;font-size: 12px;&quot;&gt;IAccountingSystem&lt;/font&gt;" style="text;html=1;align=center;verticalAlign=middle;resizable=0;points=[];autosize=1;strokeColor=none;fillColor=none;spacing=2;" parent="1" vertex="1">
          <mxGeometry x="-140" y="426.35" width="130" height="30" as="geometry" />
        </mxCell>
        <mxCell id="DZr0Z_fmnJ5IC--OXbw6-71" value="Library system" style="verticalAlign=top;align=left;spacingTop=8;spacingLeft=2;spacingRight=12;shape=cube;size=10;direction=south;fontStyle=4;html=1;rounded=0;shadow=0;comic=0;labelBackgroundColor=none;strokeWidth=1;fontFamily=Verdana;fontSize=12" parent="1" vertex="1">
          <mxGeometry x="-569" y="330" width="130" height="55" as="geometry" />
        </mxCell>
        <mxCell id="DZr0Z_fmnJ5IC--OXbw6-74" value="" style="group" parent="1" vertex="1" connectable="0">
          <mxGeometry x="-705" y="440" width="130" height="95" as="geometry" />
        </mxCell>
        <mxCell id="DZr0Z_fmnJ5IC--OXbw6-73" value="Catalog     " style="verticalAlign=top;align=left;spacingTop=8;spacingLeft=2;spacingRight=12;shape=cube;size=10;direction=south;fontStyle=4;html=1;rounded=0;shadow=0;comic=0;labelBackgroundColor=none;strokeWidth=1;fontFamily=Verdana;fontSize=12" parent="DZr0Z_fmnJ5IC--OXbw6-74" vertex="1">
          <mxGeometry width="130" height="95" as="geometry" />
        </mxCell>
        <mxCell id="DZr0Z_fmnJ5IC--OXbw6-72" value="Catalog     " style="shape=component;align=left;spacingLeft=36;rounded=0;shadow=0;comic=0;labelBackgroundColor=none;strokeWidth=1;fontFamily=Verdana;fontSize=12;html=1;" parent="DZr0Z_fmnJ5IC--OXbw6-74" vertex="1">
          <mxGeometry x="18.055555555555554" y="45" width="97.5" height="40" as="geometry" />
        </mxCell>
        <mxCell id="DZr0Z_fmnJ5IC--OXbw6-75" value="" style="group" parent="1" vertex="1" connectable="0">
          <mxGeometry x="-705" y="580" width="113.5" height="95" as="geometry" />
        </mxCell>
        <mxCell id="DZr0Z_fmnJ5IC--OXbw6-76" value="Book" style="verticalAlign=top;align=left;spacingTop=8;spacingLeft=2;spacingRight=12;shape=cube;size=10;direction=south;fontStyle=4;html=1;rounded=0;shadow=0;comic=0;labelBackgroundColor=none;strokeWidth=1;fontFamily=Verdana;fontSize=12" parent="DZr0Z_fmnJ5IC--OXbw6-75" vertex="1">
          <mxGeometry width="113.49999999999997" height="95" as="geometry" />
        </mxCell>
        <mxCell id="DZr0Z_fmnJ5IC--OXbw6-77" value="Book" style="shape=component;align=left;spacingLeft=36;rounded=0;shadow=0;comic=0;labelBackgroundColor=none;strokeWidth=1;fontFamily=Verdana;fontSize=12;html=1;" parent="DZr0Z_fmnJ5IC--OXbw6-75" vertex="1">
          <mxGeometry x="15.761695652173913" y="45" width="82.93395652173912" height="40" as="geometry" />
        </mxCell>
        <mxCell id="DZr0Z_fmnJ5IC--OXbw6-78" value="" style="group" parent="1" vertex="1" connectable="0">
          <mxGeometry x="-419" y="456.35" width="210" height="95" as="geometry" />
        </mxCell>
        <mxCell id="DZr0Z_fmnJ5IC--OXbw6-79" value="AccountingSystem      " style="verticalAlign=top;align=left;spacingTop=8;spacingLeft=2;spacingRight=12;shape=cube;size=10;direction=south;fontStyle=4;html=1;rounded=0;shadow=0;comic=0;labelBackgroundColor=none;strokeWidth=1;fontFamily=Verdana;fontSize=12" parent="DZr0Z_fmnJ5IC--OXbw6-78" vertex="1">
          <mxGeometry width="210" height="95" as="geometry" />
        </mxCell>
        <mxCell id="DZr0Z_fmnJ5IC--OXbw6-80" value="AccountingSystem      " style="shape=component;align=left;spacingLeft=36;rounded=0;shadow=0;comic=0;labelBackgroundColor=none;strokeWidth=1;fontFamily=Verdana;fontSize=12;html=1;" parent="DZr0Z_fmnJ5IC--OXbw6-78" vertex="1">
          <mxGeometry x="29.166666666666668" y="45" width="163.33333333333334" height="40" as="geometry" />
        </mxCell>
        <mxCell id="DZr0Z_fmnJ5IC--OXbw6-81" value="" style="group" parent="1" vertex="1" connectable="0">
          <mxGeometry x="-444" y="610" width="120" height="95" as="geometry" />
        </mxCell>
        <mxCell id="DZr0Z_fmnJ5IC--OXbw6-82" value="Loan  " style="verticalAlign=top;align=left;spacingTop=8;spacingLeft=2;spacingRight=12;shape=cube;size=10;direction=south;fontStyle=4;html=1;rounded=0;shadow=0;comic=0;labelBackgroundColor=none;strokeWidth=1;fontFamily=Verdana;fontSize=12" parent="DZr0Z_fmnJ5IC--OXbw6-81" vertex="1">
          <mxGeometry width="120" height="95" as="geometry" />
        </mxCell>
        <mxCell id="DZr0Z_fmnJ5IC--OXbw6-83" value="Loan  " style="shape=component;align=left;spacingLeft=36;rounded=0;shadow=0;comic=0;labelBackgroundColor=none;strokeWidth=1;fontFamily=Verdana;fontSize=12;html=1;" parent="DZr0Z_fmnJ5IC--OXbw6-81" vertex="1">
          <mxGeometry x="16.67" y="45" width="83.33" height="40" as="geometry" />
        </mxCell>
        <mxCell id="DZr0Z_fmnJ5IC--OXbw6-84" value="" style="group" parent="1" vertex="1" connectable="0">
          <mxGeometry x="-304" y="610" width="140" height="95" as="geometry" />
        </mxCell>
        <mxCell id="DZr0Z_fmnJ5IC--OXbw6-85" value="Reader    " style="verticalAlign=top;align=left;spacingTop=8;spacingLeft=2;spacingRight=12;shape=cube;size=10;direction=south;fontStyle=4;html=1;rounded=0;shadow=0;comic=0;labelBackgroundColor=none;strokeWidth=1;fontFamily=Verdana;fontSize=12" parent="DZr0Z_fmnJ5IC--OXbw6-84" vertex="1">
          <mxGeometry width="140" height="95" as="geometry" />
        </mxCell>
        <mxCell id="DZr0Z_fmnJ5IC--OXbw6-86" value="Reader    " style="shape=component;align=left;spacingLeft=36;rounded=0;shadow=0;comic=0;labelBackgroundColor=none;strokeWidth=1;fontFamily=Verdana;fontSize=12;html=1;" parent="DZr0Z_fmnJ5IC--OXbw6-84" vertex="1">
          <mxGeometry x="19.448333333333338" y="45" width="97.21833333333333" height="40" as="geometry" />
        </mxCell>
        <mxCell id="DZr0Z_fmnJ5IC--OXbw6-88" value="" style="rounded=0;orthogonalLoop=1;jettySize=auto;html=1;endArrow=halfCircle;endFill=0;endSize=12;strokeWidth=1;sketch=0;entryX=0.25;entryY=0.925;entryDx=0;entryDy=0;entryPerimeter=0;exitX=0;exitY=0;exitDx=55;exitDy=70;exitPerimeter=0;" parent="1" source="DZr0Z_fmnJ5IC--OXbw6-71" target="DZr0Z_fmnJ5IC--OXbw6-91" edge="1">
          <mxGeometry relative="1" as="geometry">
            <mxPoint x="-539" y="396" as="sourcePoint" />
            <mxPoint x="-716.27" y="426.35" as="targetPoint" />
            <Array as="points">
              <mxPoint x="-509" y="400" />
            </Array>
          </mxGeometry>
        </mxCell>
        <mxCell id="DZr0Z_fmnJ5IC--OXbw6-89" value="" style="rounded=0;orthogonalLoop=1;jettySize=auto;html=1;endArrow=halfCircle;endFill=0;endSize=12;strokeWidth=1;sketch=0;exitX=1;exitY=0.5;exitDx=0;exitDy=0;" parent="1" source="DZr0Z_fmnJ5IC--OXbw6-92" target="DZr0Z_fmnJ5IC--OXbw6-91" edge="1">
          <mxGeometry relative="1" as="geometry">
            <mxPoint x="-490" y="401.35" as="sourcePoint" />
            <mxPoint x="-640" y="401.35" as="targetPoint" />
          </mxGeometry>
        </mxCell>
        <mxCell id="DZr0Z_fmnJ5IC--OXbw6-90" value="" style="rounded=0;orthogonalLoop=1;jettySize=auto;html=1;endArrow=oval;endFill=0;sketch=0;sourcePerimeterSpacing=0;targetPerimeterSpacing=0;endSize=22;exitX=0;exitY=0;exitDx=0;exitDy=65;exitPerimeter=0;" parent="1" source="DZr0Z_fmnJ5IC--OXbw6-73" target="DZr0Z_fmnJ5IC--OXbw6-91" edge="1">
          <mxGeometry relative="1" as="geometry">
            <mxPoint x="-636.27" y="441.35" as="sourcePoint" />
            <mxPoint x="-651.27" y="401.35" as="targetPoint" />
          </mxGeometry>
        </mxCell>
        <mxCell id="DZr0Z_fmnJ5IC--OXbw6-91" value="" style="ellipse;whiteSpace=wrap;html=1;align=center;aspect=fixed;fillColor=none;strokeColor=none;resizable=0;perimeter=centerPerimeter;rotatable=0;allowArrows=0;points=[];outlineConnect=1;" parent="1" vertex="1">
          <mxGeometry x="-645" y="396.35" width="10" height="10" as="geometry" />
        </mxCell>
        <mxCell id="DZr0Z_fmnJ5IC--OXbw6-93" value="&lt;font style=&quot;font-size: 12px;&quot;&gt;ICatalog&lt;/font&gt;" style="text;html=1;align=center;verticalAlign=middle;resizable=0;points=[];autosize=1;strokeColor=none;fillColor=none;spacing=2;" parent="1" vertex="1">
          <mxGeometry x="-675" y="360" width="70" height="30" as="geometry" />
        </mxCell>
        <mxCell id="DZr0Z_fmnJ5IC--OXbw6-94" value="" style="ellipse;whiteSpace=wrap;html=1;align=center;aspect=fixed;fillColor=none;strokeColor=none;resizable=0;perimeter=centerPerimeter;rotatable=0;allowArrows=0;points=[];outlineConnect=1;" parent="1" vertex="1">
          <mxGeometry x="-790" y="396.35" width="10" height="10" as="geometry" />
        </mxCell>
        <mxCell id="DZr0Z_fmnJ5IC--OXbw6-95" value="" style="rounded=0;orthogonalLoop=1;jettySize=auto;html=1;endArrow=oval;endFill=0;sketch=0;sourcePerimeterSpacing=0;targetPerimeterSpacing=0;endSize=22;exitX=0;exitY=0.5;exitDx=0;exitDy=0;" parent="1" source="DZr0Z_fmnJ5IC--OXbw6-92" target="DZr0Z_fmnJ5IC--OXbw6-94" edge="1">
          <mxGeometry relative="1" as="geometry">
            <mxPoint x="-731.5" y="451.35" as="sourcePoint" />
            <mxPoint x="-684" y="451.35" as="targetPoint" />
          </mxGeometry>
        </mxCell>
        <mxCell id="DZr0Z_fmnJ5IC--OXbw6-96" value="&lt;font style=&quot;font-size: 12px;&quot;&gt;ICatalog&lt;/font&gt;" style="text;html=1;align=center;verticalAlign=middle;resizable=0;points=[];autosize=1;strokeColor=none;fillColor=none;spacing=2;" parent="1" vertex="1">
          <mxGeometry x="-820" y="411.35" width="70" height="30" as="geometry" />
        </mxCell>
        <mxCell id="DZr0Z_fmnJ5IC--OXbw6-98" value="" style="endArrow=open;endSize=12;dashed=1;html=1;rounded=0;exitX=0;exitY=0;exitDx=22.5;exitDy=0;exitPerimeter=0;entryX=0;entryY=0;entryDx=32.5;entryDy=130;entryPerimeter=0;" parent="1" source="DZr0Z_fmnJ5IC--OXbw6-71" target="DZr0Z_fmnJ5IC--OXbw6-100" edge="1">
          <mxGeometry width="160" relative="1" as="geometry">
            <mxPoint x="-495" y="396.05999999999995" as="sourcePoint" />
            <mxPoint x="-389" y="353" as="targetPoint" />
            <Array as="points">
              <mxPoint x="-409" y="353" />
              <mxPoint x="-409" y="360" />
            </Array>
          </mxGeometry>
        </mxCell>
        <mxCell id="DZr0Z_fmnJ5IC--OXbw6-99" value="" style="rounded=0;orthogonalLoop=1;jettySize=auto;html=1;endArrow=oval;endFill=0;sketch=0;sourcePerimeterSpacing=0;targetPerimeterSpacing=0;endSize=22;exitX=0;exitY=0;exitDx=55;exitDy=70;exitPerimeter=0;entryX=0.635;entryY=0.723;entryDx=0;entryDy=0;entryPerimeter=0;" parent="1" source="DZr0Z_fmnJ5IC--OXbw6-100" target="DZr0Z_fmnJ5IC--OXbw6-64" edge="1">
          <mxGeometry relative="1" as="geometry">
            <mxPoint x="-299" y="375" as="sourcePoint" />
            <mxPoint x="-290" y="441" as="targetPoint" />
          </mxGeometry>
        </mxCell>
        <mxCell id="DZr0Z_fmnJ5IC--OXbw6-100" value="Librarian" style="verticalAlign=top;align=left;spacingTop=8;spacingLeft=2;spacingRight=12;shape=cube;size=10;direction=south;fontStyle=4;html=1;rounded=0;shadow=0;comic=0;labelBackgroundColor=none;strokeWidth=1;fontFamily=Verdana;fontSize=12" parent="1" vertex="1">
          <mxGeometry x="-369" y="327.5" width="130" height="55" as="geometry" />
        </mxCell>
        <mxCell id="DZr0Z_fmnJ5IC--OXbw6-92" value="" style="html=1;rounded=0;rotation=-180;" parent="1" vertex="1">
          <mxGeometry x="-739" y="391.35" width="20" height="20" as="geometry" />
        </mxCell>
        <mxCell id="DZr0Z_fmnJ5IC--OXbw6-102" value="" style="endArrow=open;endSize=12;dashed=1;html=1;rounded=0;exitX=0;exitY=0;exitDx=95;exitDy=70;exitPerimeter=0;entryX=0;entryY=0;entryDx=0;entryDy=52.49999999999999;entryPerimeter=0;" parent="1" source="DZr0Z_fmnJ5IC--OXbw6-73" target="DZr0Z_fmnJ5IC--OXbw6-76" edge="1">
          <mxGeometry width="160" relative="1" as="geometry">
            <mxPoint x="-559" y="551.35" as="sourcePoint" />
            <mxPoint x="-489" y="558.35" as="targetPoint" />
            <Array as="points" />
          </mxGeometry>
        </mxCell>
        <mxCell id="DZr0Z_fmnJ5IC--OXbw6-103" value="" style="endArrow=open;endSize=12;dashed=1;html=1;rounded=0;exitX=0;exitY=0;exitDx=95;exitDy=110;exitPerimeter=0;entryX=0;entryY=0;entryDx=0;entryDy=55;entryPerimeter=0;" parent="1" source="DZr0Z_fmnJ5IC--OXbw6-79" target="DZr0Z_fmnJ5IC--OXbw6-82" edge="1">
          <mxGeometry width="160" relative="1" as="geometry">
            <mxPoint x="-424" y="551.35" as="sourcePoint" />
            <mxPoint x="-423" y="596.35" as="targetPoint" />
            <Array as="points">
              <mxPoint x="-319" y="580" />
              <mxPoint x="-379" y="580" />
            </Array>
          </mxGeometry>
        </mxCell>
        <mxCell id="DZr0Z_fmnJ5IC--OXbw6-104" value="" style="endArrow=open;endSize=12;dashed=1;html=1;rounded=0;exitX=0;exitY=0;exitDx=95;exitDy=110;exitPerimeter=0;entryX=0;entryY=0;entryDx=0;entryDy=65;entryPerimeter=0;" parent="1" source="DZr0Z_fmnJ5IC--OXbw6-79" target="DZr0Z_fmnJ5IC--OXbw6-85" edge="1">
          <mxGeometry width="160" relative="1" as="geometry">
            <mxPoint x="-309" y="561" as="sourcePoint" />
            <mxPoint x="-369" y="610" as="targetPoint" />
            <Array as="points">
              <mxPoint x="-319" y="590" />
              <mxPoint x="-229" y="590" />
            </Array>
          </mxGeometry>
        </mxCell>
        <mxCell id="DZr0Z_fmnJ5IC--OXbw6-105" value="" style="endArrow=open;endSize=12;dashed=1;html=1;rounded=0;exitX=0;exitY=0;exitDx=95;exitDy=110;exitPerimeter=0;entryX=0;entryY=0;entryDx=42.5;entryDy=0;entryPerimeter=0;" parent="1" source="DZr0Z_fmnJ5IC--OXbw6-79" target="DZr0Z_fmnJ5IC--OXbw6-76" edge="1">
          <mxGeometry width="160" relative="1" as="geometry">
            <mxPoint x="-464" y="551" as="sourcePoint" />
            <mxPoint x="-524" y="600" as="targetPoint" />
            <Array as="points">
              <mxPoint x="-319" y="570" />
              <mxPoint x="-469" y="570" />
              <mxPoint x="-469" y="623" />
            </Array>
          </mxGeometry>
        </mxCell>
      </root>
    </mxGraphModel>
  </diagram>
</mxfile>
